<svg id="Layer_1" enable-background="new 0 0 512 512" height="512" viewBox="0 0 512 512" width="512" xmlns="http://www.w3.org/2000/svg"><path d="m116.859 512c-52.567 0-95.333-42.767-95.333-95.333s42.766-95.333 95.333-95.333c17.152 0 33.63 4.494 48.204 13.077l134.747-77.796c-.003-.546-.003-.682 0-1.228l-134.747-77.797c-14.573 8.583-31.052 13.077-48.204 13.077-52.567 0-95.333-42.766-95.333-95.333s42.766-95.334 95.333-95.334 95.333 42.767 95.333 95.333c0 .205 0 .41-.002.615l134.744 77.794c14.569-8.583 31.048-13.077 48.206-13.077l.578.002c52.266.333 94.756 43.098 94.756 95.333s-42.489 95-94.716 95.331l-.562.002c-17.197 0-33.685-4.495-48.26-13.078l-134.746 77.797c.001.205.002.41.002.614 0 52.567-42.766 95.334-95.333 95.334zm0-160.667c-36.025 0-65.333 29.308-65.333 65.333s29.308 65.334 65.333 65.334 65.333-29.309 65.333-65.333c0-2.448-.137-4.913-.406-7.326-.66-5.922 2.247-11.673 7.408-14.653l150.761-87.042c5.168-2.984 11.616-2.621 16.416.928 11.293 8.348 24.699 12.76 38.77 12.76l.467-.002c35.75-.227 64.866-29.534 64.866-65.332s-29.116-65.105-64.905-65.332l-.483-.001c-14.021 0-27.427 4.411-38.71 12.757-4.801 3.55-11.249 3.917-16.42.931l-150.761-87.041c-5.161-2.979-8.068-8.731-7.408-14.653.269-2.413.406-4.878.406-7.327 0-36.025-29.308-65.333-65.333-65.333s-65.334 29.308-65.334 65.332 29.308 65.333 65.333 65.333c14.071 0 27.478-4.412 38.769-12.759 4.799-3.548 11.246-3.914 16.417-.928l150.761 87.043c5.161 2.979 8.068 8.731 7.407 14.653-.269 2.412-.405 4.876-.405 7.324s.137 4.913.405 7.325c.661 5.922-2.247 11.674-7.407 14.653l-150.761 87.042c-5.17 2.984-11.617 2.62-16.417-.928-11.292-8.345-24.698-12.758-38.769-12.758z"/></svg>